<svg width="565" height="534" viewBox="0 0 565 534" fill="none" xmlns="http://www.w3.org/2000/svg">
<path d="M454.187 293.684L204.803 254.604L237.863 403.21L454.187 293.684Z" fill="#D12053"/>
<path d="M454.187 293.684L266.267 32.5897L204.85 254.651L454.187 293.684Z" fill="#E2136E"/>
<path d="M199.018 251.642L2.11621 0L259.965 30.8027L199.018 251.642Z" fill="#D12053"/>
<path d="M109.338 146.489L0 43.453H28.7805L109.338 146.489Z" fill="#9E1638"/>
<path d="M507.374 166.758L461.1 292.273L386.092 188.531L507.374 166.758Z" fill="#D12053"/>
<path d="M266.972 395.685L448.544 322.746L456.162 299.562L266.972 395.685Z" fill="#E2136E"/>
<path d="M121.753 533.333L199.536 260.483L238.991 438.01L121.753 533.333Z" fill="#9E1638"/>
<path d="M514.617 167.745L495.524 219.569L564.371 218.44L514.617 167.745Z" fill="#E2136E"/>
</svg>
