<svg width="514" height="501" viewBox="0 0 514 501" fill="none" xmlns="http://www.w3.org/2000/svg">
<path d="M467.011 266.59C467.011 273.302 467.011 279.056 466.052 285.769C464.134 313.578 456.463 339.47 445.914 363.444C441.119 373.034 436.325 382.623 430.571 391.254C389.336 456.463 316.455 500.575 233.026 500.575C197.545 500.575 163.981 492.903 133.295 478.519C54.6605 441.12 0 360.567 0 266.59C0 175.489 52.7425 95.8956 129.459 57.5374C123.705 65.209 117.952 73.8396 113.157 82.4702C113.157 83.4292 112.198 83.4291 112.198 84.3881C109.321 87.265 106.444 89.1829 103.567 92.0597C99.7314 94.9366 96.8545 98.7724 93.0187 102.608C92.0597 103.567 91.1008 104.526 91.1008 105.485C90.1418 106.444 89.1829 107.403 89.1829 108.362L85.347 112.198C82.4702 115.075 80.5523 117.952 78.6343 120.828C69.0448 133.295 61.3731 147.679 54.6605 162.063C53.7015 163.981 53.7015 164.94 52.7425 166.858C51.7836 168.776 51.7836 170.694 50.8246 171.653C47.9478 173.571 47.9478 174.53 47.9478 175.489L45.0709 184.119C44.1119 186.037 44.1119 187.955 43.153 189.873C43.153 190.832 42.194 191.791 42.194 192.75C42.194 194.668 41.2351 196.586 41.2351 198.504C40.2761 203.299 38.3582 209.052 38.3582 214.806C38.3582 216.724 38.3582 217.683 37.3993 219.601V243.575C37.3993 306.866 66.1679 363.444 112.198 400.843C147.679 429.612 192.75 446.873 241.657 446.873C285.769 446.873 327.004 432.489 360.567 408.515C385.5 391.254 405.638 368.239 420.022 341.388C421.94 337.552 423.858 334.676 425.776 330.84C437.284 305.907 443.996 279.056 444.955 250.287V243.575C444.955 236.862 444.955 230.149 443.996 223.437L444.955 224.396C447.832 227.272 450.709 230.149 454.545 232.067C457.422 227.272 460.299 222.478 464.134 218.642C466.052 227.272 467.011 236.862 467.97 245.493C466.052 253.164 467.011 259.877 467.011 266.59Z" fill="#EC1C24"/>
<path d="M443.997 243.575V250.287C443.997 291.522 426.735 326.045 424.817 330.84C422.899 334.675 420.982 337.552 419.064 341.388C404.679 368.239 383.582 391.254 359.608 408.515C326.045 432.489 284.81 446.873 240.698 446.873C191.791 446.873 146.72 429.612 111.239 400.843C65.2091 363.444 36.4404 306.866 36.4404 243.575V219.601C36.4404 217.683 36.4404 216.724 37.3994 214.806C38.3583 209.052 40.2763 203.299 41.2352 197.545C41.2352 195.627 42.1942 193.709 42.1942 191.791C42.1942 190.832 43.1531 189.873 43.1531 188.914C44.1121 186.996 44.1121 185.078 45.071 183.16C46.03 180.284 46.9889 178.366 47.9479 175.489C47.9479 174.53 48.9068 173.571 48.9068 172.612C49.8658 170.694 49.8658 168.776 50.8248 167.817C51.7837 165.899 51.7837 164.94 52.7427 163.022C59.4554 147.679 67.127 134.254 76.7166 121.787C78.6345 118.91 81.5113 116.034 83.4292 113.157C84.3882 112.198 85.3472 110.28 87.2651 109.321C88.224 108.362 88.224 107.403 89.183 106.444C90.1419 105.485 91.1009 104.526 91.1009 103.567C93.9778 99.7314 97.8136 96.8545 101.649 93.0187C104.526 90.1418 107.403 87.265 110.28 85.347C110.28 86.306 109.321 87.265 109.321 87.265C109.321 88.2239 108.362 89.1829 108.362 90.1418C96.8546 114.116 89.183 141.925 86.3061 172.612C85.3472 180.284 85.3472 188.914 85.3472 197.545C85.3472 303.989 147.679 390.295 225.355 390.295H233.985C245.493 390.295 256.041 388.377 266.59 385.5C319.332 371.116 357.691 323.168 357.691 266.59V262.754C356.732 229.19 342.347 198.504 319.332 177.407C335.635 177.407 350.978 180.284 365.362 184.119C394.131 191.791 420.023 205.216 442.079 222.478L443.038 223.437C443.038 230.149 443.997 236.862 443.997 243.575Z" fill="#F6921E"/>
<path d="M443.996 243.575V250.287C443.996 294.399 424.817 330.84 424.817 331.799C422.899 335.634 420.982 338.511 419.064 342.347C404.679 369.198 383.582 392.213 359.608 410.433C325.086 435.366 282.892 448.791 239.739 448.791C192.75 448.791 146.72 432.489 110.28 402.761C62.3322 363.444 35.4814 305.907 35.4814 244.534C35.4814 183.16 63.2912 124.664 111.239 85.347L113.157 83.4291C113.157 84.3881 112.198 84.3881 112.198 85.347C112.198 86.306 111.239 87.265 111.239 87.265C64.2501 125.623 38.3583 183.16 38.3583 243.575C38.3583 304.948 65.2091 361.526 113.157 400.843C147.679 430.571 192.75 446.873 239.739 446.873C282.892 446.873 323.168 433.448 358.649 408.515C382.623 391.254 403.72 367.28 418.105 341.388C420.023 337.552 421.94 334.675 423.858 330.84C423.858 330.84 443.996 293.44 443.037 250.287V243.575C443.037 236.862 443.037 230.149 442.079 224.396V223.437L443.037 224.396L443.996 225.355V243.575Z" fill="#F6921E"/>
<path d="M388.377 116.993C388.377 116.993 221.519 85.347 143.843 230.149C143.843 230.149 157.269 130.418 276.179 84.3881L252.205 40.2761C252.205 40.2761 300.153 -2.87687 383.582 8.6306L388.377 116.993Z" fill="#EC1C24"/>
<path d="M182.201 193.709C182.201 193.709 248.369 106.444 400.843 129.459L398.925 78.6343C398.925 78.6343 462.216 76.7164 514 120.828L450.709 216.724C450.709 216.724 407.556 165.899 317.414 164.94C280.015 163.981 234.944 168.776 182.201 193.709Z" fill="#F6921E"/>
<path d="M217.683 227.272C217.683 227.272 203.299 230.149 204.258 223.437C204.258 220.56 206.175 219.601 207.134 220.56C207.134 219.601 204.258 215.765 210.97 213.847C212.888 210.97 214.806 208.093 215.765 206.175C216.724 204.257 217.683 201.381 223.437 203.299C229.19 204.257 234.944 210.011 235.903 211.929C238.78 211.929 242.616 212.888 241.657 212.888L239.739 214.806C239.739 214.806 241.657 215.765 235.903 215.765C235.903 216.724 236.862 217.683 237.821 217.683C238.78 218.642 237.821 218.642 237.821 219.601C237.821 219.601 238.78 222.478 235.903 221.519C233.026 220.56 233.026 219.601 232.067 219.601C231.108 219.601 229.19 219.601 229.19 220.56C229.19 221.519 232.067 223.437 229.19 223.437C228.231 224.396 230.149 225.354 229.19 225.354C228.231 226.313 221.519 231.108 218.642 232.067C215.765 232.067 214.806 231.108 214.806 230.149C214.806 229.19 216.724 228.231 218.642 228.231C217.683 228.231 218.642 227.272 217.683 227.272Z" fill="#EC1C24"/>
<path d="M216.724 242.616C215.765 242.616 210.97 239.739 213.847 238.78C215.765 236.862 225.355 231.108 227.272 230.149C229.19 229.19 232.067 232.067 229.19 233.985C226.313 236.862 216.724 242.616 216.724 242.616Z" fill="#EC1C24"/>
<path d="M231.108 235.903C231.108 233.985 233.026 228.231 233.026 227.272C233.026 226.313 237.821 225.354 236.862 231.108C234.944 235.903 231.108 237.821 231.108 235.903Z" fill="#EC1C24"/>
<path d="M237.821 224.396C237.821 224.396 264.672 223.437 266.589 224.396C268.507 225.355 278.097 239.739 275.22 252.205C273.302 264.672 269.466 267.549 252.205 269.466C252.205 265.631 251.246 255.082 249.328 252.205C247.41 249.328 241.657 242.616 239.739 242.616C239.739 245.493 238.78 254.123 238.78 254.123C238.78 254.123 230.149 255.082 229.19 253.164V239.739C229.19 239.739 236.862 233.026 237.821 231.108C238.78 232.067 239.739 235.903 248.369 234.944C248.369 235.903 237.821 236.862 237.821 224.396Z" fill="#EC1C24"/>
<path d="M227.272 236.862C227.272 236.862 218.642 243.575 216.724 245.493C215.765 247.41 214.806 255.082 225.354 255.082C227.272 250.287 227.272 236.862 227.272 236.862Z" fill="#EC1C24"/>
<path d="M207.134 247.41C204.257 247.41 202.339 246.452 202.339 244.534C202.339 242.616 206.175 239.739 209.052 240.698C210.97 241.657 215.765 242.616 215.765 251.246C217.683 253.164 222.477 257 229.19 257C235.903 257 239.739 257 239.739 258.918V271.384C239.739 271.384 232.067 271.384 212.888 257.959C210.97 256.041 210.011 254.123 210.011 251.246C210.011 248.369 208.093 247.41 207.134 247.41Z" fill="#EC1C24"/>
<path d="M201.38 248.369C198.504 248.369 188.914 256.041 195.627 258.918L199.463 255.082C199.463 255.082 197.545 259.877 201.38 260.836C205.216 261.795 203.298 258.918 205.216 258.918C206.175 260.836 206.175 261.795 208.093 261.795C210.011 261.795 210.011 256.041 208.093 253.164C207.134 250.287 205.216 248.369 201.38 248.369Z" fill="#EC1C24"/>
<path d="M241.657 249.328V274.261C241.657 274.261 249.328 271.384 250.287 269.466C250.287 265.631 248.369 249.328 241.657 249.328Z" fill="#EC1C24"/>
<path d="M221.519 265.631C221.519 265.631 231.108 272.343 236.862 274.261C235.903 275.22 232.067 280.974 230.149 280.015C229.19 280.015 222.478 270.425 221.519 265.631Z" fill="#EC1C24"/>
<path d="M174.53 275.22H187.955V280.015H175.489L174.53 275.22Z" fill="#EC1C24"/>
<path d="M317.414 272.343H262.754L271.385 279.056H317.414V272.343Z" fill="#EC1C24"/>
<path d="M252.205 272.343C253.164 271.384 259.877 276.179 257.959 277.138C256.041 278.097 238.78 284.81 237.821 284.81C235.903 283.851 236.862 280.015 238.78 279.056C239.739 278.097 249.329 275.22 252.205 272.343Z" fill="#EC1C24"/>
<path d="M233.026 283.851C231.108 282.892 220.56 293.44 225.354 294.399C230.149 295.358 241.657 297.276 244.534 299.194C247.41 298.235 249.328 295.358 249.328 294.399C251.246 294.399 254.123 297.276 257 296.317C259.877 295.358 273.302 285.769 273.302 283.851C270.425 281.933 264.672 278.097 261.795 278.097C259.877 277.138 242.616 287.687 233.026 283.851Z" fill="#EC1C24"/>
<path d="M227.272 297.276C228.231 297.276 242.616 302.071 245.493 302.071C249.328 301.112 249.328 298.235 251.246 298.235C253.164 298.235 254.123 300.153 257 298.235C259.877 296.317 266.59 290.563 267.549 289.604C267.549 291.522 267.549 297.276 255.082 303.03C242.616 308.784 212.888 317.414 211.929 321.25C212.888 321.25 216.724 320.291 219.601 319.332C221.519 320.291 224.396 324.127 223.437 330.84C222.478 337.552 217.683 348.101 217.683 350.978V369.198C217.683 370.157 220.56 378.787 216.724 377.828C212.888 376.869 210.97 376.869 209.052 377.828C207.134 377.828 204.258 380.705 202.34 379.746C199.463 379.746 195.627 377.828 195.627 376.869C195.627 375.91 198.504 375.91 201.381 374.952C204.258 373.993 205.217 371.116 210.011 369.198C210.011 366.321 208.093 342.347 208.093 337.552C208.093 332.757 206.175 322.209 209.052 318.373C210.97 312.619 222.478 296.317 227.272 297.276Z" fill="#EC1C24"/>
<path d="M245.493 310.702C245.493 312.619 254.123 333.716 257.959 333.716C261.795 333.716 297.276 326.045 303.989 328.922C305.907 331.799 309.743 336.593 309.743 339.47C309.743 339.47 310.702 346.183 309.743 347.142C310.702 347.142 313.578 346.183 314.537 344.265C315.496 342.347 314.537 332.758 314.537 330.84C314.537 328.922 319.332 320.291 313.579 321.25C307.825 321.25 291.523 321.25 285.769 320.291C280.974 319.332 268.508 316.455 265.631 318.373C262.754 320.291 258.918 325.086 258.918 326.045C257.959 326.045 257 325.086 258.918 321.25C259.877 317.414 264.672 306.866 263.713 301.112C260.836 302.071 245.493 310.702 245.493 310.702Z" fill="#EC1C24"/>
<path d="M225.355 277.138C225.355 278.097 226.313 280.015 227.272 280.974L199.463 279.056C199.463 279.056 196.586 277.138 197.545 276.179L225.355 277.138Z" fill="#EC1C24"/>
<path d="M194.668 275.22H222.478C222.478 275.22 220.56 272.343 219.601 270.425H193.709C193.709 270.425 190.832 270.425 190.832 276.179C190.832 277.138 192.75 279.056 194.668 275.22Z" fill="#EC1C24"/>
<path d="M167.817 280.015H173.571C173.571 280.015 175.489 279.056 173.571 277.138C171.653 275.22 167.817 273.302 170.694 269.467C167.817 269.467 163.981 268.508 164.94 277.138H162.063C162.063 277.138 161.104 272.343 154.392 272.343C147.679 272.343 131.377 279.056 131.377 279.056C131.377 279.056 149.597 283.851 154.392 283.851C159.186 283.851 162.063 279.056 162.063 279.056H163.981C163.981 279.056 164.94 282.892 165.899 283.851V289.605C165.899 289.605 163.022 290.564 163.981 293.44C163.981 296.317 165.899 296.317 166.858 296.317C167.817 296.317 167.817 295.358 170.694 295.358C171.653 294.399 170.694 290.564 168.776 289.605V285.769C168.776 285.769 170.694 283.851 170.694 282.892C169.735 280.974 167.817 281.933 167.817 280.015Z" fill="#EC1C24"/>
<path d="M201.381 306.866C203.299 305.907 204.257 303.03 204.257 303.03V286.728C204.257 282.892 197.545 280.015 196.586 280.015C195.627 280.974 193.709 281.933 192.75 281.933C190.832 281.933 189.873 281.933 187.955 280.015C182.202 280.015 179.325 286.728 179.325 287.687C179.325 288.645 178.366 301.112 179.325 303.03C179.325 304.948 181.243 306.866 182.201 307.825C181.243 311.66 175.489 333.716 183.16 336.593V340.429H202.34V336.593C208.093 331.798 203.299 312.619 201.381 306.866ZM179.325 286.728C179.325 285.769 182.201 280.974 186.037 280.974C187.955 282.892 189.873 282.892 191.791 282.892C193.709 282.892 195.627 280.974 196.586 280.974C198.504 281.933 202.34 283.851 202.34 286.728V303.03C202.34 303.989 201.381 304.948 200.422 305.907H196.586V298.235H184.119V304.948H181.243C180.284 303.989 179.325 303.03 179.325 301.112V286.728ZM192.75 331.798H188.914C187.955 331.798 186.996 330.84 186.996 329.881C186.996 328.922 187.955 327.963 188.914 327.963H192.75C193.709 327.963 194.668 328.922 194.668 329.881C194.668 330.84 193.709 331.798 192.75 331.798ZM200.422 333.716L190.832 323.168L182.201 333.716C176.448 331.798 180.284 314.537 182.201 306.866H200.422C202.34 314.537 205.216 330.84 200.422 333.716Z" fill="#EC1C24"/>
<path d="M197.545 314.537C199.463 311.661 196.586 309.743 196.586 309.743H185.079C181.243 309.743 182.202 314.537 182.202 314.537L188.914 320.291C190.832 320.291 195.627 317.414 197.545 314.537Z" fill="#EC1C24"/>
<path d="M192.75 321.25L199.463 328.922C199.463 328.922 198.504 319.332 198.504 316.455C197.545 317.414 192.75 321.25 192.75 321.25Z" fill="#EC1C24"/>
<path d="M183.16 316.455C183.16 319.332 182.201 328.922 182.201 328.922L188.914 321.25C188.914 321.25 185.078 317.414 183.16 316.455Z" fill="#EC1C24"/>
<path d="M196.586 296.317H197.545V295.358C197.545 294.399 196.586 294.399 196.586 294.399H186.037C185.078 294.399 185.078 295.358 185.078 295.358V296.317H186.037H196.586Z" fill="#EC1C24"/>
<path d="M181.243 340.429H180.284V341.388C180.284 342.347 181.243 342.347 181.243 342.347H200.422C201.381 342.347 201.381 341.388 201.381 341.388V340.429H200.422H181.243Z" fill="#EC1C24"/>
<path d="M116.993 272.343C116.993 272.343 41.2352 106.444 217.683 0L259.877 77.6754C259.877 77.6754 231.108 87.2649 200.422 114.116C166.858 142.884 131.377 190.832 116.993 272.343Z" fill="#F6921E"/>
</svg>
